<svg width="329" height="440" viewBox="0 0 329 440" fill="none" xmlns="http://www.w3.org/2000/svg">
<mask id="path-1-outside-1_2769_12110" maskUnits="userSpaceOnUse" x="0" y="0" width="329" height="440" fill="black">
<rect fill="white" width="329" height="440"/>
<path d="M320 1C324.418 1 328 4.58172 328 9V325.455L302.769 350.456L328 375.456V431C328 435.418 324.418 439 320 439H9C4.58172 439 1 435.418 1 431V9C1 4.58172 4.58172 1 9 1H320Z"/>
</mask>
<path d="M320 1C324.418 1 328 4.58172 328 9V325.455L302.769 350.456L328 375.456V431C328 435.418 324.418 439 320 439H9C4.58172 439 1 435.418 1 431V9C1 4.58172 4.58172 1 9 1H320Z" fill="#D9D9D9"/>
<path d="M320 1V0V1ZM328 325.455L328.704 326.165L329 325.872V325.455H328ZM302.769 350.456L302.065 349.746L301.348 350.456L302.065 351.166L302.769 350.456ZM328 375.456H329V375.039L328.704 374.746L328 375.456ZM320 439V440V439ZM9 439L9 440H9V439ZM9 1V0V1ZM320 1V2C323.866 2 327 5.13401 327 9H328H329C329 4.02944 324.971 2.74181e-06 320 0V1ZM328 9H327V325.455H328H329V9H328ZM328 325.455L327.296 324.745L302.065 349.746L302.769 350.456L303.472 351.166L328.704 326.165L328 325.455ZM302.769 350.456L302.065 351.166L327.296 376.166L328 375.456L328.704 374.746L303.472 349.746L302.769 350.456ZM328 375.456H327V431H328H329V375.456H328ZM328 431H327C327 434.866 323.866 438 320 438V439V440C324.971 440 329 435.971 329 431H328ZM320 439V438H9V439V440H320V439ZM9 439L9 438C5.13401 438 2 434.866 2 431H1H0C0 435.971 4.02944 440 9 440L9 439ZM1 431H2V9H1H0V431H1ZM1 9H2C2 5.13401 5.13401 2 9 2V1V0C4.02944 1.78814e-07 0 4.02944 0 9H1ZM9 1V2H320V1V0H9V1Z" fill="#2F3745" mask="url(#path-1-outside-1_2769_12110)"/>
</svg>
