<svg width="189" height="189" viewBox="0 0 189 189" fill="none" xmlns="http://www.w3.org/2000/svg">
<path d="M153.904 0H34.926C15.6369 0 0 15.6369 0 34.926V153.904C0 173.193 15.6369 188.83 34.926 188.83H153.904C173.193 188.83 188.83 173.193 188.83 153.904V34.926C188.83 15.6369 173.193 0 153.904 0Z" fill="#14171B"/>
<path d="M147.474 144.769H42.6064V134.758H147.474V144.769Z" fill="#FFEB56"/>
<path d="M147.475 105.49L47.7099 144.657L44.0532 135.343L143.818 96.1758L147.475 105.49Z" fill="#FFEB56"/>
<path d="M93.0438 49.6726L54.3487 144.694L45.0796 140.918L83.7747 45.896L93.0438 49.6726Z" fill="#FFEB56"/>
<path d="M52.1978 144.657H42.6064V46.8026H52.1978V132.136L140.468 44.0601L147.122 50.7141L52.1978 144.657Z" fill="white"/>
</svg>
