<svg width="38" height="38" viewBox="0 0 38 38" fill="none" xmlns="http://www.w3.org/2000/svg">
<path d="M24 25.0452V27.0094C24 29.2128 22.0249 31 19.5881 31H18.4119C15.9751 31 14 29.2128 14 27.0094V25" fill="#808794"/>
<path d="M29.8929 21.9993L28.3734 19.7411C28.3016 19.6348 28.2637 19.5084 28.2637 19.3801V13.7913C28.2637 9.48956 24.6322 6 20.1533 6H18.2229C13.7439 6 10.1124 9.48755 10.1124 13.7913V18.9509C10.1124 19.0833 10.0706 19.2136 9.99479 19.3219L8.11825 21.9872C7.81912 22.4124 8.12223 23 8.63873 23H29.3605C29.873 23 30.1761 22.4244 29.889 21.9973L29.8929 21.9993Z" fill="#808794"/>
</svg>
