<svg width="17" height="19" viewBox="0 0 17 19" fill="none" xmlns="http://www.w3.org/2000/svg">
<path d="M11.4895 3.03386C12.1284 2.3234 12.5787 1.35371 12.5787 0.374432C12.5787 0.24002 12.5683 0.105609 12.5473 0C11.5 0.0384032 10.2431 0.633653 9.49951 1.44012C8.90252 2.05457 8.35789 3.03386 8.35789 4.01314C8.35789 4.16675 8.38931 4.31076 8.39979 4.35877C8.46263 4.36837 8.56736 4.38757 8.68257 4.38757C9.61472 4.38757 10.7878 3.81152 11.4895 3.03386ZM12.2226 4.58919C10.6621 4.58919 9.3843 5.46286 8.56736 5.46286C7.69806 5.46286 6.56692 4.64679 5.20536 4.64679C2.61839 4.64679 0 6.60536 0 10.2921C0 12.5963 0.963567 15.0253 2.16803 16.5902C3.19443 17.9151 4.09516 19 5.39388 19C6.67165 19 7.23722 18.2223 8.8292 18.2223C10.4421 18.2223 10.8087 18.9808 12.2226 18.9808C13.6261 18.9808 14.5582 17.7999 15.4485 16.6382C16.433 15.3037 16.8519 14.0076 16.8624 13.9404C16.7786 13.9212 14.0974 12.9131 14.0974 10.1001C14.0974 7.66145 16.2026 6.56695 16.3283 6.48055C14.9353 4.64679 12.8092 4.58919 12.2226 4.58919Z" fill="white"/>
</svg>
