<svg width="38" height="38" viewBox="0 0 38 38" fill="none" xmlns="http://www.w3.org/2000/svg">
<path d="M7.00013 23.3787L6.4698 22.8484L5.93947 23.3787L6.4698 23.909L7.00013 23.3787ZM17.2815 13.0973L17.7013 12.4759L17.1887 12.1295L16.7512 12.567L17.2815 13.0973ZM19.4995 12.7728L20.0298 13.3031L20.0298 13.3031L19.4995 12.7728ZM19.824 10.5548L19.2937 10.0245L18.8562 10.4619L19.2025 10.9746L19.824 10.5548ZM23.3796 6.99922L23.9099 6.46889L23.3796 5.93856L22.8493 6.46889L23.3796 6.99922ZM31.4927 15.1123L32.023 15.6426L32.5533 15.1123L32.023 14.582L31.4927 15.1123ZM27.9392 18.6658L27.5094 19.2804L28.0248 19.6409L28.4695 19.1961L27.9392 18.6658ZM25.726 18.9441L25.1957 18.4137L25.1957 18.4138L25.726 18.9441ZM25.4477 21.1572L25.9781 21.6876L26.4228 21.2428L26.0623 20.7274L25.4477 21.1572ZM15.1132 31.4918L14.5829 32.0221L15.1132 32.5524L15.6435 32.0221L15.1132 31.4918ZM7.00013 23.3787L7.53046 23.909L17.8118 13.6277L17.2815 13.0973L16.7512 12.567L6.4698 22.8484L7.00013 23.3787ZM17.2815 13.0973L16.8616 13.7188C17.8468 14.3844 19.179 14.1539 20.0298 13.3031L19.4995 12.7728L18.9692 12.2424C18.5433 12.6683 17.9989 12.6769 17.7013 12.4759L17.2815 13.0973ZM19.4995 12.7728L20.0298 13.3031C20.8807 12.4522 21.111 11.1201 20.4455 10.135L19.824 10.5548L19.2025 10.9746C19.4036 11.2722 19.395 11.8166 18.9692 12.2424L19.4995 12.7728ZM19.824 10.5548L20.3544 11.0851L23.9099 7.52955L23.3796 6.99922L22.8493 6.46889L19.2937 10.0245L19.824 10.5548ZM23.3796 6.99922L22.8493 7.52955L30.9623 15.6426L31.4927 15.1123L32.023 14.582L23.9099 6.46889L23.3796 6.99922ZM31.4927 15.1123L30.9623 14.582L27.4089 18.1355L27.9392 18.6658L28.4695 19.1961L32.023 15.6426L31.4927 15.1123ZM27.9392 18.6658L28.369 18.0512C27.3919 17.3679 26.0515 17.5579 25.1957 18.4137L25.726 18.9441L26.2564 19.4744C26.6581 19.0727 27.1959 19.0612 27.5094 19.2804L27.9392 18.6658ZM25.726 18.9441L25.1957 18.4138C24.34 19.2695 24.1498 20.6099 24.8331 21.5871L25.4477 21.1572L26.0623 20.7274C25.8432 20.414 25.8547 19.8762 26.2564 19.4744L25.726 18.9441ZM25.4477 21.1572L24.9174 20.6269L14.5829 30.9614L15.1132 31.4918L15.6435 32.0221L25.9781 21.6876L25.4477 21.1572ZM15.1132 31.4918L15.6435 30.9614L7.53046 22.8484L7.00013 23.3787L6.4698 23.909L14.5829 32.0221L15.1132 31.4918Z" fill="#808794"/>
<path d="M25.501 19.0205L19.137 12.6565" stroke="#808794" stroke-width="1.5"/>
</svg>
