<svg width="38" height="38" viewBox="0 0 38 38" fill="none" xmlns="http://www.w3.org/2000/svg">
<path d="M5.99863 22.9009L15.9561 12.9434C16.9754 13.82 18.5877 13.705 19.6457 12.6471C20.7035 11.5892 20.8186 9.97686 19.9419 8.9576L22.8995 6.00004L31.2715 14.3721L28.2428 17.4008C27.2408 16.877 25.913 17.0873 24.9994 18.0008C24.0858 18.9144 23.8756 20.2422 24.3993 21.2443L14.3707 31.2729L5.99863 22.9009Z" fill="#FFFF97"/>
<path d="M5.99863 22.9009L5.52284 22.4251L5.04704 22.9009L5.52284 23.3767L5.99863 22.9009ZM15.9561 12.9434L16.3949 12.4332L15.9217 12.0262L15.4803 12.4676L15.9561 12.9434ZM19.6457 12.6471L20.1215 13.1229L20.1215 13.1229L19.6457 12.6471ZM19.9419 8.9576L19.4661 8.4818L19.0247 8.92316L19.4318 9.39637L19.9419 8.9576ZM22.8995 6.00004L23.3752 5.52424L22.8994 5.04844L22.4237 5.52424L22.8995 6.00004ZM31.2715 14.3721L31.7473 14.8479L32.2231 14.3721L31.7473 13.8963L31.2715 14.3721ZM28.2428 17.4008L27.9311 17.9971L28.3691 18.226L28.7186 17.8765L28.2428 17.4008ZM24.9994 18.0008L24.5236 17.525L24.5236 17.525L24.9994 18.0008ZM24.3993 21.2443L24.8751 21.7201L25.2246 21.3706L24.9956 20.9326L24.3993 21.2443ZM14.3707 31.2729L13.8949 31.7487L14.3707 32.2245L14.8465 31.7487L14.3707 31.2729ZM5.99863 22.9009L6.47443 23.3767L16.4319 13.4192L15.9561 12.9434L15.4803 12.4676L5.52284 22.4251L5.99863 22.9009ZM15.9561 12.9434L15.5174 13.4535C16.8397 14.5909 18.8499 14.3945 20.1215 13.1229L19.6457 12.6471L19.1699 12.1713C18.3256 13.0155 17.1111 13.0492 16.3949 12.4332L15.9561 12.9434ZM19.6457 12.6471L20.1215 13.1229C21.393 11.8513 21.5894 9.84118 20.452 8.51882L19.9419 8.9576L19.4318 9.39637C20.0477 10.1125 20.0141 11.3271 19.1699 12.1713L19.6457 12.6471ZM19.9419 8.9576L20.4177 9.43339L23.3752 6.47584L22.8995 6.00004L22.4237 5.52424L19.4661 8.4818L19.9419 8.9576ZM22.8995 6.00004L22.4237 6.47584L30.7957 14.8479L31.2715 14.3721L31.7473 13.8963L23.3752 5.52424L22.8995 6.00004ZM31.2715 14.3721L30.7957 13.8963L27.767 16.925L28.2428 17.4008L28.7186 17.8765L31.7473 14.8479L31.2715 14.3721ZM28.2428 17.4008L28.5545 16.8044C27.269 16.1325 25.6263 16.4223 24.5236 17.525L24.9994 18.0008L25.4752 18.4766C26.1996 17.7522 27.2126 17.6215 27.9311 17.9971L28.2428 17.4008ZM24.9994 18.0008L24.5236 17.525C23.4209 18.6277 23.131 20.2704 23.803 21.556L24.3993 21.2443L24.9956 20.9326C24.6201 20.214 24.7507 19.2011 25.4752 18.4766L24.9994 18.0008ZM24.3993 21.2443L23.9235 20.7685L13.8949 30.7971L14.3707 31.2729L14.8465 31.7487L24.8751 21.7201L24.3993 21.2443ZM14.3707 31.2729L14.8465 30.7971L6.47443 22.4251L5.99863 22.9009L5.52284 23.3767L13.8949 31.7487L14.3707 31.2729Z" fill="#FFFF97"/>
<path d="M26 19L19 12" stroke="#14171B" stroke-width="1.17362"/>
</svg>
