<svg width="343" height="167" viewBox="0 0 343 167" fill="none" xmlns="http://www.w3.org/2000/svg">
<mask id="path-1-inside-1_2561_14192" fill="white">
<path d="M333 0C338.523 3.73669e-06 343 4.47716 343 10V45.8325C343 49.3362 340.343 52.2015 337.121 53.578C327.134 57.8447 320 69.1032 320 82.3232C320 95.5434 327.134 106.802 337.121 111.068C340.343 112.445 343 115.31 343 118.814V157C343 162.523 338.523 167 333 167H10C4.47716 167 2.01337e-07 162.523 0 157V10C1.54626e-06 4.47715 4.47715 0 10 0H333Z"/>
</mask>
<path d="M333 0C338.523 3.73669e-06 343 4.47716 343 10V45.8325C343 49.3362 340.343 52.2015 337.121 53.578C327.134 57.8447 320 69.1032 320 82.3232C320 95.5434 327.134 106.802 337.121 111.068C340.343 112.445 343 115.31 343 118.814V157C343 162.523 338.523 167 333 167H10C4.47716 167 2.01337e-07 162.523 0 157V10C1.54626e-06 4.47715 4.47715 0 10 0H333Z" fill="#222831"/>
<path d="M333 0V-1V0ZM337.121 53.578L337.514 54.4976L337.121 53.578ZM320 82.3232L319 82.3232V82.3232H320ZM337.121 111.068L337.514 110.149L337.121 111.068ZM0 157H-1H0ZM0 10H-1H0ZM333 0V1C337.971 1 342 5.02944 342 10H343H344C344 3.92487 339.075 -0.999996 333 -1V0ZM343 10H342V45.8325H343H344V10H343ZM343 45.8325H342C342 48.7966 339.73 51.3762 336.729 52.6584L337.121 53.578L337.514 54.4976C340.957 53.0268 344 49.8758 344 45.8325H343ZM337.121 53.578L336.729 52.6584C326.318 57.1059 319 68.766 319 82.3232L320 82.3232L321 82.3232C321 69.4405 327.95 58.5835 337.514 54.4976L337.121 53.578ZM320 82.3232H319C319 95.8806 326.318 107.541 336.729 111.988L337.121 111.068L337.514 110.149C327.95 106.063 321 95.2061 321 82.3232H320ZM337.121 111.068L336.729 111.988C339.73 113.27 342 115.85 342 118.814H343H344C344 114.771 340.957 111.62 337.514 110.149L337.121 111.068ZM343 118.814H342V157H343H344V118.814H343ZM343 157H342C342 161.971 337.971 166 333 166V167V168C339.075 168 344 163.075 344 157H343ZM333 167V166H10V167V168H333V167ZM10 167V166C5.02944 166 1 161.971 1 157H0H-1C-1 163.075 3.92487 168 10 168V167ZM0 157H1V10H0H-1V157H0ZM0 10H1C1 5.02944 5.02944 1 10 1V0V-1C3.92487 -1 -0.999998 3.92487 -1 10H0ZM10 0V1H333V0V-1H10V0Z" fill="#2F3745" mask="url(#path-1-inside-1_2561_14192)"/>
<rect x="152" y="52.5" width="39" height="39" rx="19.5" fill="#2F3745"/>
<rect x="152" y="52.5" width="39" height="39" rx="19.5" stroke="#2F3745"/>
<path d="M171.5 64V80" stroke="#F2F4F6" stroke-width="1.5"/>
<path d="M179.5 72L163.5 72" stroke="#F2F4F6" stroke-width="1.5"/>
<path d="M129.241 106.842H137.431V108.172H129.241V106.842ZM136.535 106.842H138.187V108.032C138.187 108.648 138.173 109.297 138.145 109.978C138.117 110.65 138.009 111.415 137.823 112.274L136.185 112.148C136.362 111.317 136.465 110.575 136.493 109.922C136.521 109.269 136.535 108.639 136.535 108.032V106.842ZM137.039 109.222V110.44L129.115 110.79L128.891 109.418L137.039 109.222ZM127.925 112.974H139.517V114.29H127.925V112.974ZM132.335 111.322H134.001V113.814H132.335V111.322ZM129.311 117.664H138.411V119.008H129.311V117.664ZM129.311 115.186H130.963V118.266H129.311V115.186ZM146.558 110.44H150.002V111.784H146.558V110.44ZM143.156 107.332H144.514V109.32C144.514 110.104 144.439 110.869 144.29 111.616C144.14 112.353 143.916 113.044 143.618 113.688C143.319 114.323 142.95 114.887 142.512 115.382C142.073 115.877 141.564 116.273 140.986 116.572L139.95 115.242C140.472 114.99 140.934 114.659 141.336 114.248C141.737 113.828 142.073 113.352 142.344 112.82C142.614 112.288 142.815 111.728 142.946 111.14C143.086 110.543 143.156 109.936 143.156 109.32V107.332ZM143.506 107.332H144.836V109.32C144.836 109.927 144.901 110.519 145.032 111.098C145.162 111.677 145.358 112.223 145.62 112.736C145.89 113.24 146.222 113.688 146.614 114.08C147.006 114.472 147.458 114.785 147.972 115.018L146.978 116.348C146.399 116.068 145.89 115.69 145.452 115.214C145.022 114.738 144.663 114.192 144.374 113.576C144.084 112.96 143.865 112.293 143.716 111.574C143.576 110.846 143.506 110.095 143.506 109.32V107.332ZM149.176 106.31H150.828V119.218H149.176V106.31ZM153.669 113.03H162.657V114.346H153.669V113.03ZM152.269 116.32H163.931V117.678H152.269V116.32ZM153.669 107.304H162.545V108.634H155.349V113.408H153.669V107.304ZM154.845 110.146H162.265V111.448H154.845V110.146ZM171.876 114.542H173.542V119.218H171.876V114.542ZM166.906 114.052H178.54V115.41H166.906V114.052ZM171.862 108.606H173.332V108.914C173.332 109.343 173.252 109.759 173.094 110.16C172.944 110.561 172.72 110.935 172.422 111.28C172.123 111.625 171.759 111.938 171.33 112.218C170.9 112.489 170.415 112.717 169.874 112.904C169.342 113.091 168.754 113.221 168.11 113.296L167.522 111.994C168.072 111.919 168.576 111.812 169.034 111.672C169.491 111.523 169.892 111.345 170.238 111.14C170.592 110.935 170.891 110.711 171.134 110.468C171.376 110.225 171.558 109.973 171.68 109.712C171.801 109.441 171.862 109.175 171.862 108.914V108.606ZM172.086 108.606H173.542V108.914C173.542 109.166 173.602 109.427 173.724 109.698C173.854 109.959 174.041 110.211 174.284 110.454C174.526 110.697 174.82 110.925 175.166 111.14C175.52 111.345 175.926 111.523 176.384 111.672C176.841 111.812 177.34 111.919 177.882 111.994L177.294 113.296C176.659 113.221 176.071 113.091 175.53 112.904C174.988 112.708 174.503 112.475 174.074 112.204C173.644 111.924 173.28 111.611 172.982 111.266C172.692 110.921 172.468 110.552 172.31 110.16C172.16 109.759 172.086 109.343 172.086 108.914V108.606ZM167.97 107.822H177.462V109.138H167.97V107.822ZM171.876 106.338H173.542V108.27H171.876V106.338ZM187.443 106.31H189.109V119.176H187.443V106.31ZM188.675 111.308H190.971V112.68H188.675V111.308ZM184.083 107.654H185.707C185.707 108.923 185.52 110.127 185.147 111.266C184.773 112.405 184.167 113.455 183.327 114.416C182.487 115.368 181.353 116.199 179.925 116.908L179.001 115.648C180.149 115.051 181.096 114.379 181.843 113.632C182.599 112.876 183.159 112.027 183.523 111.084C183.896 110.141 184.083 109.091 184.083 107.934V107.654ZM179.687 107.654H184.937V108.998H179.687V107.654ZM199.635 106.324H201.301V119.204H199.635V106.324ZM200.923 111.42H203.219V112.806H200.923V111.42ZM191.193 108.27H198.711V109.6H191.193V108.27ZM194.987 110.412C195.613 110.412 196.163 110.543 196.639 110.804C197.125 111.065 197.507 111.425 197.787 111.882C198.067 112.33 198.207 112.853 198.207 113.45C198.207 114.047 198.067 114.575 197.787 115.032C197.507 115.489 197.125 115.849 196.639 116.11C196.163 116.371 195.613 116.502 194.987 116.502C194.371 116.502 193.821 116.371 193.335 116.11C192.85 115.849 192.463 115.489 192.173 115.032C191.893 114.575 191.753 114.047 191.753 113.45C191.753 112.853 191.893 112.33 192.173 111.882C192.463 111.425 192.85 111.065 193.335 110.804C193.821 110.543 194.371 110.412 194.987 110.412ZM194.987 111.77C194.67 111.77 194.385 111.84 194.133 111.98C193.891 112.12 193.699 112.316 193.559 112.568C193.419 112.811 193.349 113.105 193.349 113.45C193.349 113.795 193.419 114.094 193.559 114.346C193.699 114.598 193.891 114.794 194.133 114.934C194.385 115.074 194.67 115.144 194.987 115.144C195.305 115.144 195.585 115.074 195.827 114.934C196.079 114.794 196.275 114.598 196.415 114.346C196.555 114.094 196.625 113.795 196.625 113.45C196.625 113.105 196.555 112.811 196.415 112.568C196.275 112.316 196.079 112.12 195.827 111.98C195.585 111.84 195.305 111.77 194.987 111.77ZM194.133 106.52H195.813V108.788H194.133V106.52ZM212.444 106.31H214.124V119.19H212.444V106.31ZM208.65 107.668H210.302C210.302 108.639 210.2 109.567 209.994 110.454C209.798 111.331 209.476 112.162 209.028 112.946C208.58 113.73 207.974 114.458 207.208 115.13C206.443 115.802 205.5 116.413 204.38 116.964L203.498 115.634C204.74 115.037 205.738 114.365 206.494 113.618C207.25 112.862 207.796 112.017 208.132 111.084C208.478 110.141 208.65 109.101 208.65 107.962V107.668ZM204.17 107.668H209.42V108.998H204.17V107.668Z" fill="#DBDCDF"/>
</svg>
