<svg width="53" height="53" viewBox="0 0 53 53" fill="none" xmlns="http://www.w3.org/2000/svg">
<path d="M41.2788 42.5206C41.5169 43.3416 40.6079 44.0234 39.8118 43.6208L15.8765 31.518C15.2201 31.1861 15.1305 30.3316 15.7068 29.8994L32.4824 17.3181C33.0587 16.8859 33.9228 17.1596 34.1192 17.8365L41.2788 42.5206Z" fill="#FFEB56"/>
<rect width="2.17076" height="8.2596" transform="matrix(0.32499 -0.945718 0.956527 0.291644 11.4541 16.3477)" fill="#2F3745"/>
<rect width="2.15789" height="8.30378" transform="matrix(-0.0285254 -0.999593 0.99968 -0.0253115 0.0615234 20.1687)" fill="white"/>
<rect width="2.24095" height="8.00949" transform="matrix(0.803753 -0.594963 0.640619 0.767859 13.7451 1.3335)" fill="white"/>
<rect width="2.29041" height="5.14676" transform="matrix(0.998704 0.0508881 -0.0573345 0.998355 24.3491 11.5977)" fill="#FFEB56"/>
<ellipse cx="12.5995" cy="23.1957" rx="1.1454" ry="1.0789" fill="#FFFF97"/>
<ellipse cx="1.71864" cy="10.7889" rx="1.1454" ry="1.0789" fill="#2F3745"/>
<ellipse cx="26.3451" cy="6.47294" rx="1.1454" ry="1.0789" fill="#FFFF97"/>
</svg>
