<svg width="11" height="9" viewBox="0 0 11 9" fill="none" xmlns="http://www.w3.org/2000/svg">
<path d="M2.99 8.11C2.53 8.11 2.15 8.02 1.85 7.84C1.55 7.66 1.3 7.42 1.1 7.12C0.9 6.8 0.75 6.44 0.65 6.04C0.57 5.64 0.53 5.28 0.53 4.96C0.53 3.98 0.78 3.08 1.28 2.26C1.8 1.44 2.59 0.779998 3.65 0.279999L3.92 0.819999C3.32 1.08 2.8 1.48 2.36 2.02C1.92 2.56 1.68 3.11 1.64 3.67C1.6 3.97 1.62 4.25 1.7 4.51C2.06 4.17 2.5 4 3.02 4C3.6 4 4.09 4.19 4.49 4.57C4.89 4.93 5.09 5.43 5.09 6.07C5.09 6.67 4.88 7.16 4.46 7.54C4.06 7.92 3.57 8.11 2.99 8.11ZM8.45 8.11C7.99 8.11 7.61 8.02 7.31 7.84C7.01 7.66 6.76 7.42 6.56 7.12C6.36 6.8 6.21 6.44 6.11 6.04C6.03 5.64 5.99 5.28 5.99 4.96C5.99 3.98 6.24 3.08 6.74 2.26C7.26 1.44 8.05 0.779998 9.11 0.279999L9.38 0.819999C8.78 1.08 8.26 1.48 7.82 2.02C7.38 2.56 7.14 3.11 7.1 3.67C7.06 3.97 7.08 4.25 7.16 4.51C7.52 4.17 7.96 4 8.48 4C9.06 4 9.55 4.19 9.95 4.57C10.35 4.93 10.55 5.43 10.55 6.07C10.55 6.67 10.34 7.16 9.92 7.54C9.52 7.92 9.03 8.11 8.45 8.11Z" fill="#FFFF97"/>
</svg>
