<svg width="344" height="274" viewBox="0 0 344 274" fill="none" xmlns="http://www.w3.org/2000/svg">
<rect width="344" height="274" rx="8" fill="#2F3745"/>
<mask id="mask0_3629_8470" style="mask-type:alpha" maskUnits="userSpaceOnUse" x="0" y="0" width="343" height="274">
<path d="M0 8C0 3.58173 3.58172 0 8 0H335C339.418 0 343 3.58172 343 8V274H0V8Z" fill="#2F3745"/>
</mask>
<g mask="url(#mask0_3629_8470)">
<g opacity="0.31">
<mask id="path-3-outside-1_3629_8470" maskUnits="userSpaceOnUse" x="-57.8923" y="-116.831" width="511.715" height="478.496" fill="black">
<rect fill="white" x="-57.8923" y="-116.831" width="511.715" height="478.496"/>
<path d="M188.024 -61.8685L156.263 47.7534L361.755 -77.6021L385.308 -43.133L158.946 94.9536L385.039 223.345L363.594 259.056L132.985 128.1L68.3181 351.296L27.1482 340.688L85.3317 139.861L6.42309 187.998L-17.1304 153.529L76.8286 96.2107L-22.7996 39.6345L-1.3539 3.92442L106.906 65.4025L146.854 -72.4769L188.024 -61.8685Z"/>
</mask>
<path d="M188.024 -61.8685L156.263 47.7534L361.755 -77.6021L385.308 -43.133L158.946 94.9536L385.039 223.345L363.594 259.056L132.985 128.1L68.3181 351.296L27.1482 340.688L85.3317 139.861L6.42309 187.998L-17.1304 153.529L76.8286 96.2107L-22.7996 39.6345L-1.3539 3.92442L106.906 65.4025L146.854 -72.4769L188.024 -61.8685Z" fill="#222831"/>
<path d="M188.024 -61.8685L188.989 -61.5795L189.276 -62.5722L188.262 -62.8334L188.024 -61.8685ZM156.263 47.7534L155.299 47.4644L154.575 49.9602L156.797 48.6052L156.263 47.7534ZM361.755 -77.6021L362.582 -78.1538L362.037 -78.9516L361.221 -78.4539L361.755 -77.6021ZM385.308 -43.133L385.842 -42.2812L386.726 -42.8204L386.135 -43.6847L385.308 -43.133ZM158.946 94.9536L158.412 94.1018L156.978 94.9768L158.458 95.8175L158.946 94.9536ZM385.039 223.345L385.903 223.866L386.427 222.992L385.527 222.481L385.039 223.345ZM363.594 259.056L363.106 259.92L363.96 260.405L364.457 259.577L363.594 259.056ZM132.985 128.1L133.472 127.236L132.369 126.609L132.02 127.811L132.985 128.1ZM68.3181 351.296L68.08 352.261L69.0165 352.503L69.2823 351.585L68.3181 351.296ZM27.1482 340.688L26.184 340.399L25.8964 341.392L26.9101 341.653L27.1482 340.688ZM85.3317 139.861L86.2959 140.15L87.0189 137.654L84.7978 139.009L85.3317 139.861ZM6.42309 187.998L5.596 188.55L6.14115 189.348L6.95696 188.85L6.42309 187.998ZM-17.1304 153.529L-17.6643 152.677L-18.5481 153.217L-17.9575 154.081L-17.1304 153.529ZM76.8286 96.2107L77.3624 97.0625L78.7967 96.1875L77.3163 95.3468L76.8286 96.2107ZM-22.7996 39.6345L-23.6629 39.1142L-24.1873 39.9873L-23.2874 40.4984L-22.7996 39.6345ZM-1.3539 3.92442L-0.866156 3.06059L-1.71977 2.57584L-2.21718 3.40408L-1.3539 3.92442ZM106.906 65.4025L106.418 66.2663L107.522 66.8931L107.87 65.6915L106.906 65.4025ZM146.854 -72.4769L147.093 -73.4417L146.156 -73.6831L145.89 -72.7659L146.854 -72.4769ZM188.024 -61.8685L187.06 -62.1576L155.299 47.4644L156.263 47.7534L157.227 48.0424L188.989 -61.5795L188.024 -61.8685ZM156.263 47.7534L156.797 48.6052L362.289 -76.7503L361.755 -77.6021L361.221 -78.4539L155.729 46.9016L156.263 47.7534ZM361.755 -77.6021L360.928 -77.0504L384.481 -42.5813L385.308 -43.133L386.135 -43.6847L362.582 -78.1538L361.755 -77.6021ZM385.308 -43.133L384.774 -43.9849L158.412 94.1018L158.946 94.9536L159.48 95.8055L385.842 -42.2812L385.308 -43.133ZM158.946 94.9536L158.458 95.8175L384.552 224.209L385.039 223.345L385.527 222.481L159.434 94.0898L158.946 94.9536ZM385.039 223.345L384.176 222.825L362.73 258.536L363.594 259.056L364.457 259.577L385.903 223.866L385.039 223.345ZM363.594 259.056L364.082 258.193L133.472 127.236L132.985 128.1L132.497 128.964L363.106 259.92L363.594 259.056ZM132.985 128.1L132.02 127.811L67.3539 351.007L68.3181 351.296L69.2823 351.585L133.949 128.389L132.985 128.1ZM68.3181 351.296L68.5562 350.332L27.3863 339.723L27.1482 340.688L26.9101 341.653L68.08 352.261L68.3181 351.296ZM27.1482 340.688L28.1124 340.977L86.2959 140.15L85.3317 139.861L84.3675 139.572L26.184 340.399L27.1482 340.688ZM85.3317 139.861L84.7978 139.009L5.88922 187.146L6.42309 187.998L6.95696 188.85L85.8656 140.713L85.3317 139.861ZM6.42309 187.998L7.25018 187.447L-16.3033 152.978L-17.1304 153.529L-17.9575 154.081L5.596 188.55L6.42309 187.998ZM-17.1304 153.529L-16.5966 154.381L77.3624 97.0625L76.8286 96.2107L76.2947 95.3588L-17.6643 152.677L-17.1304 153.529ZM76.8286 96.2107L77.3163 95.3468L-22.3119 38.7707L-22.7996 39.6345L-23.2874 40.4984L76.3408 97.0745L76.8286 96.2107ZM-22.7996 39.6345L-21.9364 40.1549L-0.490626 4.44477L-1.3539 3.92442L-2.21718 3.40408L-23.6629 39.1142L-22.7996 39.6345ZM-1.3539 3.92442L-1.84165 4.78826L106.418 66.2663L106.906 65.4025L107.394 64.5386L-0.866156 3.06059L-1.3539 3.92442ZM106.906 65.4025L107.87 65.6915L147.819 -72.1879L146.854 -72.4769L145.89 -72.7659L105.942 65.1134L106.906 65.4025ZM146.854 -72.4769L146.616 -71.5121L187.786 -60.9037L188.024 -61.8685L188.262 -62.8334L147.093 -73.4417L146.854 -72.4769Z" fill="#222831" mask="url(#path-3-outside-1_3629_8470)"/>
</g>
</g>
</svg>
