<svg width="374" height="337" viewBox="0 0 374 337" fill="none" xmlns="http://www.w3.org/2000/svg">
<mask id="mask0_3043_5322" style="mask-type:alpha" maskUnits="userSpaceOnUse" x="-1" y="0" width="375" height="337">
<rect x="-1" width="375" height="337" fill="#14171B"/>
</mask>
<g mask="url(#mask0_3043_5322)">
<g opacity="0.31">
<mask id="path-2-outside-1_3043_5322" maskUnits="userSpaceOnUse" x="-99.3468" y="-129.301" width="610.227" height="596.017" fill="black">
<rect fill="white" x="-99.3468" y="-129.301" width="610.227" height="596.017"/>
<path d="M194.146 -61.4052L156.177 75.3515L401.827 -81.0342L429.984 -38.0318L159.387 134.235L429.662 294.408L404.026 338.959L128.35 175.586L51.0464 454.033L1.83008 440.798L71.3856 190.259L-22.945 250.312L-51.1008 207.31L61.2198 135.803L-57.8777 65.2229L-32.2413 20.6723L97.1756 97.3683L144.93 -74.639L194.146 -61.4052Z"/>
</mask>
<path d="M194.146 -61.4052L156.177 75.3515L401.827 -81.0342L429.984 -38.0318L159.387 134.235L429.662 294.408L404.026 338.959L128.35 175.586L51.0464 454.033L1.83008 440.798L71.3856 190.259L-22.945 250.312L-51.1008 207.31L61.2198 135.803L-57.8777 65.2229L-32.2413 20.6723L97.1756 97.3683L144.93 -74.639L194.146 -61.4052Z" fill="#2F3745"/>
<path d="M194.146 -61.4052L195.109 -61.1377L195.379 -62.1091L194.405 -62.3709L194.146 -61.4052ZM156.177 75.3515L155.213 75.084L154.517 77.594L156.714 76.1951L156.177 75.3515ZM401.827 -81.0342L402.663 -81.582L402.122 -82.408L401.29 -81.8778L401.827 -81.0342ZM429.984 -38.0318L430.521 -37.1882L431.375 -37.7321L430.82 -38.5795L429.984 -38.0318ZM159.387 134.235L158.85 133.391L157.477 134.266L158.877 135.095L159.387 134.235ZM429.662 294.408L430.529 294.907L431.021 294.051L430.172 293.548L429.662 294.408ZM404.026 338.959L403.516 339.819L404.387 340.335L404.892 339.457L404.026 338.959ZM128.35 175.586L128.86 174.726L127.736 174.06L127.386 175.319L128.35 175.586ZM51.0464 454.033L50.7867 454.999L51.7446 455.256L52.0099 454.3L51.0464 454.033ZM1.83008 440.798L0.866528 440.531L0.596843 441.502L1.5704 441.764L1.83008 440.798ZM71.3856 190.259L72.3491 190.526L73.046 188.016L70.8485 189.415L71.3856 190.259ZM-22.945 250.312L-23.7816 250.86L-23.2408 251.686L-22.408 251.156L-22.945 250.312ZM-51.1008 207.31L-51.6378 206.467L-52.4923 207.011L-51.9374 207.858L-51.1008 207.31ZM61.2198 135.803L61.7569 136.646L63.1298 135.772L61.7297 134.943L61.2198 135.803ZM-57.8777 65.2229L-58.7444 64.7242L-59.2369 65.5799L-58.3875 66.0832L-57.8777 65.2229ZM-32.2413 20.6723L-31.7315 19.812L-32.6028 19.2956L-33.108 20.1736L-32.2413 20.6723ZM97.1756 97.3683L96.6658 98.2285L97.7897 98.8946L98.1391 97.6358L97.1756 97.3683ZM144.93 -74.639L145.19 -75.6047L144.232 -75.8622L143.967 -74.9065L144.93 -74.639ZM194.146 -61.4052L193.182 -61.6727L155.213 75.084L156.177 75.3515L157.141 75.619L195.109 -61.1377L194.146 -61.4052ZM156.177 75.3515L156.714 76.1951L402.364 -80.1907L401.827 -81.0342L401.29 -81.8778L155.64 74.508L156.177 75.3515ZM401.827 -81.0342L400.99 -80.4864L429.147 -37.484L429.984 -38.0318L430.82 -38.5795L402.663 -81.582L401.827 -81.0342ZM429.984 -38.0318L429.447 -38.8753L158.85 133.391L159.387 134.235L159.924 135.079L430.521 -37.1882L429.984 -38.0318ZM159.387 134.235L158.877 135.095L429.152 295.268L429.662 294.408L430.172 293.548L159.897 133.375L159.387 134.235ZM429.662 294.408L428.795 293.909L403.159 338.46L404.026 338.959L404.892 339.457L430.529 294.907L429.662 294.408ZM404.026 338.959L404.535 338.098L128.86 174.726L128.35 175.586L127.84 176.446L403.516 339.819L404.026 338.959ZM128.35 175.586L127.386 175.319L50.0828 453.765L51.0464 454.033L52.0099 454.3L129.314 175.854L128.35 175.586ZM51.0464 454.033L51.3061 453.067L2.08977 439.833L1.83008 440.798L1.5704 441.764L50.7867 454.999L51.0464 454.033ZM1.83008 440.798L2.79364 441.066L72.3491 190.526L71.3856 190.259L70.422 189.991L0.866528 440.531L1.83008 440.798ZM71.3856 190.259L70.8485 189.415L-23.482 249.468L-22.945 250.312L-22.408 251.156L71.9226 191.102L71.3856 190.259ZM-22.945 250.312L-22.1084 249.764L-50.2642 206.762L-51.1008 207.31L-51.9374 207.858L-23.7816 250.86L-22.945 250.312ZM-51.1008 207.31L-50.5638 208.154L61.7569 136.646L61.2198 135.803L60.6828 134.959L-51.6378 206.467L-51.1008 207.31ZM61.2198 135.803L61.7297 134.943L-57.3679 64.3627L-57.8777 65.2229L-58.3875 66.0832L60.71 136.663L61.2198 135.803ZM-57.8777 65.2229L-57.011 65.7217L-31.3745 21.1711L-32.2413 20.6723L-33.108 20.1736L-58.7444 64.7242L-57.8777 65.2229ZM-32.2413 20.6723L-32.7511 21.5326L96.6658 98.2285L97.1756 97.3683L97.6854 96.508L-31.7315 19.812L-32.2413 20.6723ZM97.1756 97.3683L98.1391 97.6358L145.894 -74.3715L144.93 -74.639L143.967 -74.9065L96.212 97.1007L97.1756 97.3683ZM144.93 -74.639L144.671 -73.6733L193.886 -60.4395L194.146 -61.4052L194.405 -62.3709L145.19 -75.6047L144.93 -74.639Z" fill="url(#paint0_linear_3043_5322)" mask="url(#path-2-outside-1_3043_5322)"/>
</g>
</g>
<defs>
<linearGradient id="paint0_linear_3043_5322" x1="431.451" y1="-30.5291" x2="19.0633" y2="257.2" gradientUnits="userSpaceOnUse">
<stop stop-color="#E3E3E3"/>
<stop offset="1" stop-color="#558CB5"/>
</linearGradient>
</defs>
</svg>
