<svg width="376" height="217" viewBox="0 0 376 217" fill="none" xmlns="http://www.w3.org/2000/svg">
<rect width="376" height="217" fill="#222831"/>
<mask id="mask0_2666_11055" style="mask-type:alpha" maskUnits="userSpaceOnUse" x="0" y="0" width="375" height="217">
<rect width="375" height="217" fill="#14171B"/>
</mask>
<g mask="url(#mask0_2666_11055)">
<g opacity="0.31">
<mask id="path-3-outside-1_2666_11055" maskUnits="userSpaceOnUse" x="-101.347" y="-151.301" width="610.227" height="596.017" fill="black">
<rect fill="white" x="-101.347" y="-151.301" width="610.227" height="596.017"/>
<path d="M192.146 -83.4052L154.177 53.3515L399.827 -103.034L427.984 -60.0318L157.387 112.235L427.662 272.408L402.026 316.959L126.35 153.586L49.0464 432.033L-0.169918 418.798L69.3856 168.259L-24.945 228.312L-53.1008 185.31L59.2198 113.803L-59.8777 43.2229L-34.2413 -1.32768L95.1756 75.3683L142.93 -96.639L192.146 -83.4052Z"/>
</mask>
<path d="M192.146 -83.4052L154.177 53.3515L399.827 -103.034L427.984 -60.0318L157.387 112.235L427.662 272.408L402.026 316.959L126.35 153.586L49.0464 432.033L-0.169918 418.798L69.3856 168.259L-24.945 228.312L-53.1008 185.31L59.2198 113.803L-59.8777 43.2229L-34.2413 -1.32768L95.1756 75.3683L142.93 -96.639L192.146 -83.4052Z" fill="#222831"/>
<path d="M192.146 -83.4052L193.109 -83.1377L193.379 -84.1091L192.405 -84.3709L192.146 -83.4052ZM154.177 53.3515L153.213 53.084L152.517 55.594L154.714 54.1951L154.177 53.3515ZM399.827 -103.034L400.663 -103.582L400.122 -104.408L399.29 -103.878L399.827 -103.034ZM427.984 -60.0318L428.521 -59.1882L429.375 -59.7321L428.82 -60.5795L427.984 -60.0318ZM157.387 112.235L156.85 111.391L155.477 112.266L156.877 113.095L157.387 112.235ZM427.662 272.408L428.529 272.907L429.021 272.051L428.172 271.548L427.662 272.408ZM402.026 316.959L401.516 317.819L402.387 318.335L402.892 317.457L402.026 316.959ZM126.35 153.586L126.86 152.726L125.736 152.06L125.386 153.319L126.35 153.586ZM49.0464 432.033L48.7867 432.999L49.7446 433.256L50.0099 432.3L49.0464 432.033ZM-0.169918 418.798L-1.13347 418.531L-1.40316 419.502L-0.429602 419.764L-0.169918 418.798ZM69.3856 168.259L70.3491 168.526L71.046 166.016L68.8485 167.415L69.3856 168.259ZM-24.945 228.312L-25.7816 228.86L-25.2408 229.686L-24.408 229.156L-24.945 228.312ZM-53.1008 185.31L-53.6378 184.467L-54.4923 185.011L-53.9374 185.858L-53.1008 185.31ZM59.2198 113.803L59.7569 114.646L61.1298 113.772L59.7297 112.943L59.2198 113.803ZM-59.8777 43.2229L-60.7444 42.7242L-61.2369 43.5799L-60.3875 44.0832L-59.8777 43.2229ZM-34.2413 -1.32768L-33.7315 -2.18796L-34.6028 -2.70435L-35.108 -1.82644L-34.2413 -1.32768ZM95.1756 75.3683L94.6658 76.2285L95.7897 76.8946L96.1391 75.6358L95.1756 75.3683ZM142.93 -96.639L143.19 -97.6047L142.232 -97.8622L141.967 -96.9065L142.93 -96.639ZM192.146 -83.4052L191.182 -83.6727L153.213 53.084L154.177 53.3515L155.141 53.619L193.109 -83.1377L192.146 -83.4052ZM154.177 53.3515L154.714 54.1951L400.364 -102.191L399.827 -103.034L399.29 -103.878L153.64 52.508L154.177 53.3515ZM399.827 -103.034L398.99 -102.486L427.147 -59.484L427.984 -60.0318L428.82 -60.5795L400.663 -103.582L399.827 -103.034ZM427.984 -60.0318L427.447 -60.8753L156.85 111.391L157.387 112.235L157.924 113.079L428.521 -59.1882L427.984 -60.0318ZM157.387 112.235L156.877 113.095L427.152 273.268L427.662 272.408L428.172 271.548L157.897 111.375L157.387 112.235ZM427.662 272.408L426.795 271.909L401.159 316.46L402.026 316.959L402.892 317.457L428.529 272.907L427.662 272.408ZM402.026 316.959L402.535 316.098L126.86 152.726L126.35 153.586L125.84 154.446L401.516 317.819L402.026 316.959ZM126.35 153.586L125.386 153.319L48.0828 431.765L49.0464 432.033L50.0099 432.3L127.314 153.854L126.35 153.586ZM49.0464 432.033L49.3061 431.067L0.0897654 417.833L-0.169918 418.798L-0.429602 419.764L48.7867 432.999L49.0464 432.033ZM-0.169918 418.798L0.793636 419.066L70.3491 168.526L69.3856 168.259L68.422 167.991L-1.13347 418.531L-0.169918 418.798ZM69.3856 168.259L68.8485 167.415L-25.482 227.468L-24.945 228.312L-24.408 229.156L69.9226 169.102L69.3856 168.259ZM-24.945 228.312L-24.1084 227.764L-52.2642 184.762L-53.1008 185.31L-53.9374 185.858L-25.7816 228.86L-24.945 228.312ZM-53.1008 185.31L-52.5638 186.154L59.7569 114.646L59.2198 113.803L58.6828 112.959L-53.6378 184.467L-53.1008 185.31ZM59.2198 113.803L59.7297 112.943L-59.3679 42.3627L-59.8777 43.2229L-60.3875 44.0832L58.71 114.663L59.2198 113.803ZM-59.8777 43.2229L-59.011 43.7217L-33.3745 -0.828915L-34.2413 -1.32768L-35.108 -1.82644L-60.7444 42.7242L-59.8777 43.2229ZM-34.2413 -1.32768L-34.7511 -0.467399L94.6658 76.2285L95.1756 75.3683L95.6854 74.508L-33.7315 -2.18796L-34.2413 -1.32768ZM95.1756 75.3683L96.1391 75.6358L143.894 -96.3715L142.93 -96.639L141.967 -96.9065L94.212 75.1007L95.1756 75.3683ZM142.93 -96.639L142.671 -95.6733L191.886 -82.4395L192.146 -83.4052L192.405 -84.3709L143.19 -97.6047L142.93 -96.639Z" fill="url(#paint0_linear_2666_11055)" mask="url(#path-3-outside-1_2666_11055)"/>
</g>
</g>
<defs>
<linearGradient id="paint0_linear_2666_11055" x1="429.451" y1="-52.5291" x2="17.0633" y2="235.2" gradientUnits="userSpaceOnUse">
<stop stop-color="#E3E3E3"/>
<stop offset="1" stop-color="#558CB5"/>
</linearGradient>
</defs>
</svg>
