<svg width="343" height="148" viewBox="0 0 343 148" fill="none" xmlns="http://www.w3.org/2000/svg">
<path d="M0 8C0 3.58173 3.58172 0 8 0H335C339.418 0 343 3.58172 343 8V148H0V8Z" fill="#2F3745"/>
<mask id="mask0_3629_8437" style="mask-type:alpha" maskUnits="userSpaceOnUse" x="0" y="0" width="343" height="148">
<path d="M0 8C0 3.58173 3.58172 0 8 0H335C339.418 0 343 3.58172 343 8V148H0V8Z" fill="#2F3745"/>
</mask>
<g mask="url(#mask0_3629_8437)">
<g opacity="0.31">
<mask id="path-3-outside-1_3629_8437" maskUnits="userSpaceOnUse" x="-67.7471" y="-104.265" width="415.916" height="388.924" fill="black">
<rect fill="white" x="-67.7471" y="-104.265" width="415.916" height="388.924"/>
<path d="M132.483 -59.2839L106.679 29.7736L273.623 -72.0662L292.758 -44.0627L108.858 68.1203L292.539 172.427L275.117 201.439L87.7672 95.0484L35.2317 276.376L1.78393 267.758L49.0536 104.604L-15.0526 143.711L-34.1878 115.708L42.1454 69.1411L-38.7937 23.1783L-21.3708 -5.83288L66.5799 44.1115L99.0351 -67.9025L132.483 -59.2839Z"/>
</mask>
<path d="M132.483 -59.2839L106.679 29.7736L273.623 -72.0662L292.758 -44.0627L108.858 68.1203L292.539 172.427L275.117 201.439L87.7672 95.0484L35.2317 276.376L1.78393 267.758L49.0536 104.604L-15.0526 143.711L-34.1878 115.708L42.1454 69.1411L-38.7937 23.1783L-21.3708 -5.83288L66.5799 44.1115L99.0351 -67.9025L132.483 -59.2839Z" fill="#222831"/>
<path d="M132.483 -59.2839L133.447 -58.9949L133.735 -59.9875L132.721 -60.2487L132.483 -59.2839ZM106.679 29.7736L105.715 29.4845L104.992 31.9804L107.213 30.6254L106.679 29.7736ZM273.623 -72.0662L274.45 -72.6179L273.905 -73.4157L273.089 -72.918L273.623 -72.0662ZM292.758 -44.0627L293.292 -43.2109L294.175 -43.7501L293.585 -44.6144L292.758 -44.0627ZM108.858 68.1203L108.324 67.2685L106.89 68.1434L108.371 68.9841L108.858 68.1203ZM292.539 172.427L293.402 172.947L293.927 172.074L293.027 171.563L292.539 172.427ZM275.117 201.439L274.63 202.303L275.483 202.788L275.981 201.959L275.117 201.439ZM87.7672 95.0484L88.2549 94.1846L87.1512 93.5578L86.803 94.7594L87.7672 95.0484ZM35.2317 276.376L34.9936 277.341L35.9302 277.582L36.1959 276.665L35.2317 276.376ZM1.78393 267.758L0.819748 267.469L0.532149 268.461L1.54582 268.722L1.78393 267.758ZM49.0536 104.604L50.0178 104.893L50.7409 102.397L48.5197 103.752L49.0536 104.604ZM-15.0526 143.711L-15.8797 144.263L-15.3346 145.061L-14.5188 144.563L-15.0526 143.711ZM-34.1878 115.708L-34.7216 114.856L-35.6055 115.395L-35.0149 116.259L-34.1878 115.708ZM42.1454 69.1411L42.6793 69.9929L44.1136 69.1179L42.6332 68.2772L42.1454 69.1411ZM-38.7937 23.1783L-39.6569 22.658L-40.1813 23.5311L-39.2814 24.0422L-38.7937 23.1783ZM-21.3708 -5.83288L-20.883 -6.69672L-21.7367 -7.18146L-22.2341 -6.35323L-21.3708 -5.83288ZM66.5799 44.1115L66.0922 44.9754L67.1959 45.6022L67.5441 44.4006L66.5799 44.1115ZM99.0351 -67.9025L99.2732 -68.8674L98.3366 -69.1087L98.0709 -68.1916L99.0351 -67.9025ZM132.483 -59.2839L131.519 -59.5729L105.715 29.4845L106.679 29.7736L107.643 30.0626L133.447 -58.9949L132.483 -59.2839ZM106.679 29.7736L107.213 30.6254L274.157 -71.2144L273.623 -72.0662L273.089 -72.918L106.145 28.9217L106.679 29.7736ZM273.623 -72.0662L272.796 -71.5145L291.931 -43.511L292.758 -44.0627L293.585 -44.6144L274.45 -72.6179L273.623 -72.0662ZM292.758 -44.0627L292.224 -44.9146L108.324 67.2685L108.858 68.1203L109.392 68.9721L293.292 -43.2109L292.758 -44.0627ZM108.858 68.1203L108.371 68.9841L292.051 173.291L292.539 172.427L293.027 171.563L109.346 67.2565L108.858 68.1203ZM292.539 172.427L291.676 171.907L274.254 200.919L275.117 201.439L275.981 201.959L293.402 172.947L292.539 172.427ZM275.117 201.439L275.605 200.575L88.2549 94.1846L87.7672 95.0484L87.2795 95.9123L274.63 202.303L275.117 201.439ZM87.7672 95.0484L86.803 94.7594L34.2675 276.087L35.2317 276.376L36.1959 276.665L88.7314 95.3375L87.7672 95.0484ZM35.2317 276.376L35.4698 275.411L2.02203 266.793L1.78393 267.758L1.54582 268.722L34.9936 277.341L35.2317 276.376ZM1.78393 267.758L2.7481 268.047L50.0178 104.893L49.0536 104.604L48.0894 104.315L0.819748 267.469L1.78393 267.758ZM49.0536 104.604L48.5197 103.752L-15.5865 142.859L-15.0526 143.711L-14.5188 144.563L49.5875 105.455L49.0536 104.604ZM-15.0526 143.711L-14.2255 143.159L-33.3607 115.156L-34.1878 115.708L-35.0149 116.259L-15.8797 144.263L-15.0526 143.711ZM-34.1878 115.708L-33.6539 116.559L42.6793 69.9929L42.1454 69.1411L41.6115 68.2893L-34.7216 114.856L-34.1878 115.708ZM42.1454 69.1411L42.6332 68.2772L-38.3059 22.3145L-38.7937 23.1783L-39.2814 24.0422L41.6577 70.0049L42.1454 69.1411ZM-38.7937 23.1783L-37.9304 23.6987L-20.5075 -5.31254L-21.3708 -5.83288L-22.2341 -6.35323L-39.6569 22.658L-38.7937 23.1783ZM-21.3708 -5.83288L-21.8585 -4.96905L66.0922 44.9754L66.5799 44.1115L67.0677 43.2477L-20.883 -6.69672L-21.3708 -5.83288ZM66.5799 44.1115L67.5441 44.4006L99.9993 -67.6135L99.0351 -67.9025L98.0709 -68.1916L65.6157 43.8225L66.5799 44.1115ZM99.0351 -67.9025L98.797 -66.9377L132.245 -58.3191L132.483 -59.2839L132.721 -60.2487L99.2732 -68.8674L99.0351 -67.9025Z" fill="#222831" mask="url(#path-3-outside-1_3629_8437)"/>
</g>
</g>
</svg>
