<svg width="108" height="158" viewBox="0 0 108 158" fill="none" xmlns="http://www.w3.org/2000/svg">
<mask id="mask0_3281_18974" style="mask-type:alpha" maskUnits="userSpaceOnUse" x="0" y="0" width="108" height="158">
<rect width="108" height="158" rx="6" fill="#D9D9D9"/>
</mask>
<g mask="url(#mask0_3281_18974)">
<mask id="mask1_3281_18974" style="mask-type:alpha" maskUnits="userSpaceOnUse" x="-5" y="0" width="176" height="158">
<rect x="-4.5" y="0.5" width="174.816" height="157" fill="#14171B" stroke="#222831"/>
</mask>
<g mask="url(#mask1_3281_18974)">
<g opacity="0.31">
<mask id="path-3-outside-1_3281_18974" maskUnits="userSpaceOnUse" x="-52.3561" y="-61.8057" width="288.291" height="281.976" fill="black">
<rect fill="white" x="-52.3561" y="-61.8057" width="288.291" height="281.976"/>
<path d="M86.4924 -28.7899L68.6902 35.3287L183.862 -37.9923L197.063 -17.8313L70.1952 62.9351L196.913 138.031L184.893 158.918L55.6437 82.322L19.4008 212.869L-3.67388 206.664L28.9364 89.2016L-15.2893 117.357L-28.4896 97.196L24.1705 63.67L-31.6667 30.5794L-19.6477 9.69186L41.0283 45.6499L63.4177 -34.9947L86.4924 -28.7899Z"/>
</mask>
<path d="M86.4924 -28.7899L68.6902 35.3287L183.862 -37.9923L197.063 -17.8313L70.1952 62.9351L196.913 138.031L184.893 158.918L55.6437 82.322L19.4008 212.869L-3.67388 206.664L28.9364 89.2016L-15.2893 117.357L-28.4896 97.196L24.1705 63.67L-31.6667 30.5794L-19.6477 9.69186L41.0283 45.6499L63.4177 -34.9947L86.4924 -28.7899Z" fill="#222831"/>
<path d="M86.4924 -28.7899L87.4559 -28.5223L87.7256 -29.4938L86.752 -29.7556L86.4924 -28.7899ZM68.6902 35.3287L67.7267 35.0611L67.0298 37.5712L69.2273 36.1722L68.6902 35.3287ZM183.862 -37.9923L184.699 -38.5401L184.158 -39.366L183.325 -38.8358L183.862 -37.9923ZM197.063 -17.8313L197.6 -16.9877L198.454 -17.5316L197.899 -18.379L197.063 -17.8313ZM70.1952 62.9351L69.6582 62.0916L68.2852 62.9656L69.6854 63.7954L70.1952 62.9351ZM196.913 138.031L197.78 138.529L198.272 137.674L197.423 137.17L196.913 138.031ZM184.893 158.918L184.383 159.779L185.254 160.295L185.76 159.417L184.893 158.918ZM55.6437 82.322L56.1535 81.4617L55.0296 80.7957L54.6802 82.0545L55.6437 82.322ZM19.4008 212.869L19.1411 213.835L20.099 214.092L20.3643 213.137L19.4008 212.869ZM-3.67388 206.664L-4.63744 206.397L-4.90712 207.368L-3.93356 207.63L-3.67388 206.664ZM28.9364 89.2016L29.9 89.4691L30.5968 86.9591L28.3994 88.3581L28.9364 89.2016ZM-15.2893 117.357L-16.1259 117.905L-15.5851 118.731L-14.7522 118.201L-15.2893 117.357ZM-28.4896 97.196L-29.0266 96.3525L-29.881 96.8964L-29.3262 97.7438L-28.4896 97.196ZM24.1705 63.67L24.7076 64.5135L26.0805 63.6395L24.6803 62.8097L24.1705 63.67ZM-31.6667 30.5794L-32.5335 30.0807L-33.0259 30.9364L-32.1766 31.4397L-31.6667 30.5794ZM-19.6477 9.69186L-19.1379 8.83158L-20.0093 8.31517L-20.5145 9.19312L-19.6477 9.69186ZM41.0283 45.6499L40.5185 46.5102L41.6424 47.1763L41.9919 45.9174L41.0283 45.6499ZM63.4177 -34.9947L63.6774 -35.9604L62.7195 -36.2179L62.4542 -35.2622L63.4177 -34.9947ZM86.4924 -28.7899L85.5288 -29.0574L67.7267 35.0611L68.6902 35.3287L69.6538 35.5962L87.4559 -28.5223L86.4924 -28.7899ZM68.6902 35.3287L69.2273 36.1722L184.399 -37.1487L183.862 -37.9923L183.325 -38.8358L68.1532 34.4851L68.6902 35.3287ZM183.862 -37.9923L183.026 -37.4445L196.226 -17.2835L197.063 -17.8313L197.899 -18.379L184.699 -38.5401L183.862 -37.9923ZM197.063 -17.8313L196.525 -18.6748L69.6582 62.0916L70.1952 62.9351L70.7322 63.7787L197.6 -16.9877L197.063 -17.8313ZM70.1952 62.9351L69.6854 63.7954L196.403 138.891L196.913 138.031L197.423 137.17L70.705 62.0749L70.1952 62.9351ZM196.913 138.031L196.046 137.532L184.026 158.42L184.893 158.918L185.76 159.417L197.78 138.529L196.913 138.031ZM184.893 158.918L185.403 158.058L56.1535 81.4617L55.6437 82.322L55.1339 83.1823L184.383 159.779L184.893 158.918ZM55.6437 82.322L54.6802 82.0545L18.4372 212.602L19.4008 212.869L20.3643 213.137L56.6073 82.5895L55.6437 82.322ZM19.4008 212.869L19.6604 211.904L-3.4142 205.699L-3.67388 206.664L-3.93356 207.63L19.1411 213.835L19.4008 212.869ZM-3.67388 206.664L-2.71033 206.932L29.9 89.4691L28.9364 89.2016L27.9729 88.9341L-4.63744 206.397L-3.67388 206.664ZM28.9364 89.2016L28.3994 88.3581L-15.8263 116.513L-15.2893 117.357L-14.7522 118.201L29.4735 90.0452L28.9364 89.2016ZM-15.2893 117.357L-14.4526 116.809L-27.653 96.6483L-28.4896 97.196L-29.3262 97.7438L-16.1259 117.905L-15.2893 117.357ZM-28.4896 97.196L-27.9525 98.0396L24.7076 64.5135L24.1705 63.67L23.6335 62.8264L-29.0266 96.3525L-28.4896 97.196ZM24.1705 63.67L24.6803 62.8097L-31.1569 29.7191L-31.6667 30.5794L-32.1766 31.4397L23.6607 64.5303L24.1705 63.67ZM-31.6667 30.5794L-30.8 31.0782L-18.781 10.1906L-19.6477 9.69186L-20.5145 9.19312L-32.5335 30.0807L-31.6667 30.5794ZM-19.6477 9.69186L-20.1576 10.5521L40.5185 46.5102L41.0283 45.6499L41.5381 44.7896L-19.1379 8.83158L-19.6477 9.69186ZM41.0283 45.6499L41.9919 45.9174L64.3813 -34.7271L63.4177 -34.9947L62.4542 -35.2622L40.0648 45.3824L41.0283 45.6499ZM63.4177 -34.9947L63.158 -34.029L86.2327 -27.8242L86.4924 -28.7899L86.752 -29.7556L63.6774 -35.9604L63.4177 -34.9947Z" fill="#222831" mask="url(#path-3-outside-1_3281_18974)"/>
</g>
</g>
</g>
</svg>
