<svg width="91" height="86" viewBox="0 0 91 86" fill="none" xmlns="http://www.w3.org/2000/svg">
<rect width="91" height="86" rx="15.2055" fill="#28323E"/>
<path d="M45.5 9.72778C63.8787 9.72778 78.7773 24.6247 78.7773 43.0002C78.7773 61.3757 63.8786 76.2717 45.5 76.2717C27.1215 76.2716 12.2227 61.3756 12.2227 43.0002C12.2227 24.6248 27.1215 9.72795 45.5 9.72778Z" fill="#2A2A2A" stroke="url(#paint0_linear_209_25334)" stroke-width="0.760274"/>
<ellipse cx="45.5012" cy="43" rx="13.089" ry="13.087" fill="url(#paint1_linear_209_25334)"/>
<ellipse cx="45.4999" cy="42.9999" rx="12.4658" ry="12.4638" fill="url(#paint2_linear_209_25334)"/>
<path d="M45.5 37.1482C48.5602 37.1482 51.0408 39.6287 51.041 42.6882C51.041 45.7479 48.5603 48.2283 45.5 48.2283C42.4398 48.2281 39.959 45.7478 39.959 42.6882C39.9592 39.6288 42.44 37.1484 45.5 37.1482Z" fill="url(#paint3_linear_209_25334)" stroke="url(#paint4_linear_209_25334)" stroke-width="0.760274"/>
<ellipse cx="45.5013" cy="42.6885" rx="3.42808" ry="3.42754" fill="url(#paint5_radial_209_25334)"/>
<defs>
<linearGradient id="paint0_linear_209_25334" x1="14.4732" y1="9.3479" x2="76.5167" y2="76.6621" gradientUnits="userSpaceOnUse">
<stop/>
<stop offset="0.591346" stop-color="#9A9A9A"/>
<stop offset="1" stop-color="#7568FF"/>
</linearGradient>
<linearGradient id="paint1_linear_209_25334" x1="45.5012" y1="29.9131" x2="45.5012" y2="56.087" gradientUnits="userSpaceOnUse">
<stop stop-color="#A9A8B1"/>
<stop offset="1" stop-color="#615D88"/>
</linearGradient>
<linearGradient id="paint2_linear_209_25334" x1="45.4999" y1="30.5361" x2="45.4999" y2="57.7298" gradientUnits="userSpaceOnUse">
<stop stop-color="white"/>
<stop offset="1" stop-color="#D5D5D5"/>
</linearGradient>
<linearGradient id="paint3_linear_209_25334" x1="45.5003" y1="36.7683" x2="45.5003" y2="52.5558" gradientUnits="userSpaceOnUse">
<stop stop-color="#333333"/>
<stop offset="1" stop-color="#BDBCBC"/>
</linearGradient>
<linearGradient id="paint4_linear_209_25334" x1="45.5003" y1="36.7683" x2="45.5003" y2="48.6089" gradientUnits="userSpaceOnUse">
<stop stop-color="#686868"/>
<stop offset="1" stop-color="#363636"/>
</linearGradient>
<radialGradient id="paint5_radial_209_25334" cx="0" cy="0" r="1" gradientUnits="userSpaceOnUse" gradientTransform="translate(45.0915 42.6238) rotate(90) scale(5.32798 5.32883)">
<stop stop-color="#D9D9D9"/>
<stop offset="0.987688" stop-color="#737373"/>
</radialGradient>
</defs>
</svg>
