<svg width="24" height="24" viewBox="0 0 24 24" fill="none" xmlns="http://www.w3.org/2000/svg">
<path d="M12.0003 21.5C7.92607 21.5 4.61133 18.4896 4.61133 14.7893C4.61133 9.625 12.0003 2.5 12.0003 2.5C12.0003 2.5 19.3891 9.625 19.3891 14.7893C19.3891 18.4897 16.0745 21.5 12.0003 21.5Z" fill="#E11936"/>
<path d="M12.0003 21.5C9.96317 21.5 8.30577 19.9948 8.30577 18.1447C8.30577 15.5625 12.0003 12 12.0003 12C12.0003 12 15.6947 15.5625 15.6947 18.1447C15.6947 19.9948 14.0374 21.5 12.0003 21.5Z" fill="#E11936"/>
<path d="M12.0003 21.5C9.8662 21.5 8.12988 19.716 8.12988 17.5233C8.12988 14.4629 12.0003 10.2407 12.0003 10.2407C12.0003 10.2407 15.8706 14.4629 15.8706 17.5233C15.8706 19.7161 14.1344 21.5 12.0003 21.5Z" fill="white"/>
</svg>
