<svg width="30" height="30" viewBox="0 0 30 30" fill="none" xmlns="http://www.w3.org/2000/svg">
<path d="M15.0049 0C8.74253 0 6.91103 0.00646208 6.55502 0.036003C5.26988 0.142858 4.47019 0.34526 3.59896 0.779143C2.92755 1.11263 2.39804 1.4992 1.87544 2.0411C0.923698 3.02933 0.346884 4.24513 0.138077 5.69033C0.0365572 6.39193 0.00702432 6.53501 0.00102545 10.1187C-0.00128181 11.3133 0.00102545 12.8854 0.00102545 14.9941C0.00102545 21.2531 0.00794723 23.0833 0.0379416 23.4387C0.141768 24.6896 0.337885 25.4765 0.753192 26.3374C1.54689 27.9852 3.06276 29.2222 4.84858 29.6838C5.46692 29.8431 6.14987 29.9308 7.02663 29.9723C7.3981 29.9885 11.1843 30 14.9728 30C18.7613 30 22.5499 29.9954 22.9121 29.9769C23.9273 29.9291 24.5168 29.85 25.1686 29.6815C26.0541 29.4544 26.8793 29.0366 27.5867 28.4574C28.294 27.8782 28.8665 27.1516 29.264 26.3282C29.6712 25.4881 29.8777 24.6711 29.9712 23.4855C29.9915 23.227 30 19.1058 30 14.9902C30 10.8738 29.9908 6.76026 29.9705 6.50178C29.8759 5.29706 29.6694 4.48699 29.249 3.63077C28.9041 2.92986 28.521 2.40643 27.965 1.87124C26.9729 0.923155 25.7593 0.346183 24.3128 0.13755C23.6121 0.0362338 23.4725 0.0062313 19.8871 0H15.0049Z" fill="url(#paint0_radial_2797_5544)"/>
<path d="M15.0049 0C8.74253 0 6.91103 0.00646208 6.55502 0.036003C5.26988 0.142858 4.47019 0.34526 3.59896 0.779143C2.92755 1.11263 2.39804 1.4992 1.87544 2.0411C0.923698 3.02933 0.346884 4.24513 0.138077 5.69033C0.0365572 6.39193 0.00702432 6.53501 0.00102545 10.1187C-0.00128181 11.3133 0.00102545 12.8854 0.00102545 14.9941C0.00102545 21.2531 0.00794723 23.0833 0.0379416 23.4387C0.141768 24.6896 0.337885 25.4765 0.753192 26.3374C1.54689 27.9852 3.06276 29.2222 4.84858 29.6838C5.46692 29.8431 6.14987 29.9308 7.02663 29.9723C7.3981 29.9885 11.1843 30 14.9728 30C18.7613 30 22.5499 29.9954 22.9121 29.9769C23.9273 29.9291 24.5168 29.85 25.1686 29.6815C26.0541 29.4544 26.8793 29.0366 27.5867 28.4574C28.294 27.8782 28.8665 27.1516 29.264 26.3282C29.6712 25.4881 29.8777 24.6711 29.9712 23.4855C29.9915 23.227 30 19.1058 30 14.9902C30 10.8738 29.9908 6.76026 29.9705 6.50178C29.8759 5.29706 29.6694 4.48699 29.249 3.63077C28.9041 2.92986 28.521 2.40643 27.965 1.87124C26.9729 0.923155 25.7593 0.346183 24.3128 0.13755C23.6121 0.0362338 23.4725 0.0062313 19.8871 0H15.0049Z" fill="url(#paint1_radial_2797_5544)"/>
<path d="M14.9983 3.92285C11.9905 3.92285 11.6131 3.93601 10.4317 3.98978C9.25273 4.04379 8.44796 4.23049 7.74378 4.50444C7.01538 4.78739 6.39749 5.16588 5.78192 5.78185C5.16588 6.3976 4.78749 7.01565 4.5037 7.74402C4.22913 8.44862 4.04225 9.25384 3.98918 10.4327C3.93657 11.6143 3.92273 11.9921 3.92273 15.0007C3.92273 18.0093 3.93611 18.3857 3.98964 19.5673C4.04386 20.7467 4.23052 21.5516 4.50416 22.256C4.78726 22.9846 5.16565 23.6027 5.78146 24.2184C6.3968 24.8346 7.01469 25.214 7.74263 25.497C8.44726 25.7709 9.25226 25.9576 10.431 26.0116C11.6124 26.0654 11.9896 26.0786 14.9971 26.0786C18.0051 26.0786 18.3814 26.0654 19.5627 26.0116C20.7417 25.9576 21.5474 25.7709 22.2521 25.497C22.9802 25.214 23.5972 24.8346 24.2125 24.2184C24.8286 23.6027 25.207 22.9846 25.4907 22.2562C25.763 21.5516 25.9499 20.7464 26.0053 19.5676C26.0583 18.3859 26.0722 18.0093 26.0722 15.0007C26.0722 11.9921 26.0583 11.6146 26.0053 10.4329C25.9499 9.25361 25.763 8.44862 25.4907 7.74425C25.207 7.01565 24.8286 6.3976 24.2125 5.78185C23.5965 5.16565 22.9805 4.78716 22.2514 4.50444C21.5453 4.23049 20.7401 4.04379 19.5611 3.98978C18.3798 3.93601 18.0037 3.92285 14.995 3.92285H14.9983ZM14.0048 5.91917C14.2996 5.91871 14.6286 5.91917 14.9983 5.91917C17.9552 5.91917 18.3057 5.92979 19.4734 5.98287C20.5532 6.03226 21.1393 6.21274 21.5296 6.36437C22.0465 6.56515 22.4149 6.80517 22.8023 7.1929C23.19 7.58062 23.4299 7.94988 23.6311 8.46685C23.7827 8.85688 23.9633 9.44309 24.0125 10.5232C24.0656 11.691 24.0771 12.0418 24.0771 14.9982C24.0771 17.9546 24.0656 18.3054 24.0125 19.4732C23.9631 20.5533 23.7827 21.1395 23.6311 21.5295C23.4304 22.0465 23.19 22.4146 22.8023 22.8021C22.4147 23.1898 22.0467 23.4298 21.5296 23.6306C21.1397 23.7829 20.5532 23.9629 19.4734 24.0123C18.3059 24.0654 17.9552 24.0769 14.9983 24.0769C12.041 24.0769 11.6906 24.0654 10.5231 24.0123C9.44331 23.9625 8.85726 23.782 8.46664 23.6304C7.94982 23.4296 7.58066 23.1896 7.19304 22.8018C6.80542 22.4141 6.56546 22.0458 6.36427 21.5286C6.21268 21.1385 6.03203 20.5523 5.98288 19.4722C5.92981 18.3045 5.9192 17.9537 5.9192 14.9954C5.9192 12.0372 5.92981 11.6882 5.98288 10.5204C6.03226 9.44032 6.21268 8.85411 6.36427 8.46362C6.565 7.94665 6.80542 7.57739 7.19304 7.18967C7.58066 6.80194 7.94982 6.56192 8.46664 6.36067C8.85703 6.20835 9.44331 6.02834 10.5231 5.97872C11.5448 5.93256 11.9407 5.91871 14.0048 5.9164V5.91917ZM20.9099 7.75856C20.6471 7.75856 20.3901 7.83654 20.1715 7.98263C19.953 8.12872 19.7826 8.33636 19.6821 8.57929C19.5815 8.82223 19.5552 9.08954 19.6065 9.34741C19.6578 9.60529 19.7844 9.84216 19.9704 10.0281C20.1563 10.2139 20.3931 10.3405 20.6509 10.3918C20.9088 10.443 21.176 10.4166 21.4188 10.3159C21.6616 10.2152 21.8692 10.0448 22.0152 9.82611C22.1611 9.60744 22.239 9.35038 22.2389 9.08744C22.2389 8.35353 21.6436 7.7581 20.9099 7.7581V7.75856ZM14.9983 9.31177C11.8574 9.31177 9.31087 11.859 9.31087 15.0007C9.31087 18.1424 11.8574 20.6885 14.9983 20.6885C18.1391 20.6885 20.685 18.1424 20.685 15.0007C20.685 11.859 18.1389 9.31177 14.998 9.31177H14.9983ZM14.9983 11.3081C17.037 11.3081 18.6899 12.9612 18.6899 15.0007C18.6899 17.04 17.037 18.6933 14.9983 18.6933C12.9593 18.6933 11.3066 17.04 11.3066 15.0007C11.3066 12.9612 12.9593 11.3081 14.9983 11.3081Z" fill="white"/>
<defs>
<radialGradient id="paint0_radial_2797_5544" cx="0" cy="0" r="1" gradientUnits="userSpaceOnUse" gradientTransform="translate(7.96879 32.3106) rotate(-90) scale(29.7322 27.6533)">
<stop stop-color="#FFDD55"/>
<stop offset="0.1" stop-color="#FFDD55"/>
<stop offset="0.5" stop-color="#FF543E"/>
<stop offset="1" stop-color="#C837AB"/>
</radialGradient>
<radialGradient id="paint1_radial_2797_5544" cx="0" cy="0" r="1" gradientUnits="userSpaceOnUse" gradientTransform="translate(-5.02516 2.16115) rotate(78.6806) scale(13.2904 54.7837)">
<stop stop-color="#3771C8"/>
<stop offset="0.128" stop-color="#3771C8"/>
<stop offset="1" stop-color="#6600FF" stop-opacity="0"/>
</radialGradient>
</defs>
</svg>
