<svg width="101" height="25" viewBox="0 0 101 25" fill="none" xmlns="http://www.w3.org/2000/svg">
<g clip-path="url(#clip0_1012_6751)">
<path d="M0 24.9272V0H2.15237V24.9272H0Z" fill="white"/>
<path d="M57.5371 24.9272V0H59.6895V24.9272H57.5371Z" fill="white"/>
<path d="M18.6792 24.9272H0V22.8146H18.6792V24.9272Z" fill="white"/>
<path d="M73.05 24.9272H57.5352V22.8146H73.05V24.9272Z" fill="white"/>
<path d="M77.6372 10.1731H58.958V8.01196H77.6372V10.1731Z" fill="white"/>
<path d="M71.2637 23.7124L76.3348 17.0107L78.1015 18.2983L73.0304 25L71.2637 23.7124Z" fill="white"/>
<path d="M95.9485 8.08475H80.4336V10.1973H95.9485V8.08475Z" fill="white"/>
<path d="M94.1621 9.30119L99.2332 16.0029L101 14.7153L95.9288 8.01358L94.1621 9.30119Z" fill="white"/>
<path d="M21.1465 2.11258V0H23.2989V2.11258H21.1465ZM21.1465 24.9272V3.80298H23.2989V24.9288H21.1465V24.9272Z" fill="white"/>
<path d="M52.5869 2.11258V0H54.7393V2.11258H52.5869ZM52.5869 24.9272V3.80298H54.7393V24.9288H52.5869V24.9272Z" fill="white"/>
<path d="M57.5371 14.3643V0.634094H59.6895V8.02814H65.5006V10.1407H59.6895V14.3659" fill="white"/>
<path d="M80.4355 24.9272V0H82.5879V24.9272H80.4355Z" fill="white"/>
<path d="M98.7998 24.9272V14.7121H101.002V24.9272H98.7998Z" fill="white"/>
<path d="M80.4355 14.3643V0.634094H82.5879V8.02814H88.399V10.1407H82.5879V14.3659" fill="white"/>
<path d="M47.0832 24.7735H26.25V22.6124H47.0832V24.7735Z" fill="#FFEB56"/>
<path d="M49.315 16.2941L27.3726 24.7493L26.5684 22.7386L48.5107 14.2834L49.315 16.2941Z" fill="#FFEB56"/>
<path d="M37.9794 2.7127L28.8326 24.7557L26.7939 23.9405L35.9407 1.89905L37.9794 2.71432V2.7127Z" fill="#FFEB56"/>
<path d="M28.3595 24.7493H26.25V3.62503H28.3595V22.0463L47.7737 3.03299L49.2372 4.46942L28.3595 24.7493Z" fill="white"/>
</g>
<defs>
<clipPath id="clip0_1012_6751">
<rect width="101" height="25" fill="white"/>
</clipPath>
</defs>
</svg>
