<svg width="36" height="36" viewBox="0 0 36 36" fill="none" xmlns="http://www.w3.org/2000/svg">
<path d="M19.9961 4L20.5361 8.03418C20.5664 8.04178 20.5967 8.05299 20.627 8.06055H20.6348C20.8625 8.12127 21.0826 8.18583 21.3027 8.26172C21.3141 8.26551 21.3295 8.27354 21.3447 8.27734C21.5497 8.34566 21.7548 8.42139 21.9521 8.50488C22.3966 8.68722 22.8341 8.90456 23.252 9.15527L26.4844 6.68164L29.3145 9.51172L26.8418 12.7441C26.857 12.7745 26.8715 12.8016 26.8867 12.8281C26.8905 12.8281 26.8906 12.8359 26.8906 12.8359C27.0084 13.0372 27.1191 13.2384 27.2217 13.4473C27.2255 13.4624 27.2288 13.474 27.2363 13.4854C27.3313 13.6829 27.4223 13.8807 27.5059 14.082C27.692 14.5264 27.8443 14.9862 27.9658 15.4609L32 16V20L27.9658 20.5391C27.9582 20.5695 27.9471 20.6005 27.9395 20.6309V20.6416C27.8787 20.8657 27.8142 21.0902 27.7383 21.3066C27.7345 21.3218 27.7227 21.3525 27.7227 21.3525H27.7266C27.6544 21.5575 27.5825 21.7626 27.499 21.96C27.3167 22.4044 27.0993 22.841 26.8486 23.2588L29.3223 26.4922L26.4922 29.3223L23.2598 26.8486C23.2332 26.8638 22.7657 27.1259 22.5566 27.2285C22.5453 27.2323 22.5338 27.2403 22.5225 27.2441C22.3249 27.3391 22.1232 27.4301 21.9219 27.5137C21.4813 27.6998 21.0216 27.8521 20.5469 27.9736L20.0078 32.0078H16.0078L15.4678 27.9736C15.4375 27.966 15.378 27.9476 15.377 27.9473C15.3682 27.9457 14.2503 27.5828 14.0518 27.499C13.6073 27.3167 13.1698 27.0993 12.752 26.8486L9.51953 29.3223L6.68945 26.4922L9.16211 23.2588C9.14421 23.2273 8.8842 22.7606 8.78223 22.5566C8.77464 22.5415 8.77126 22.526 8.76367 22.5146C8.66871 22.3209 8.57771 22.1232 8.49414 21.9219C8.30803 21.4775 8.15573 21.0178 8.03418 20.543L4 20.0039V16.0039L8.03418 15.4648C8.04178 15.4345 8.05295 15.4034 8.06055 15.373V15.3652C8.12127 15.1375 8.18583 14.9174 8.26172 14.6973C8.26552 14.6859 8.27354 14.6705 8.27734 14.6553C8.34567 14.4503 8.42139 14.2452 8.50488 14.0479C8.68722 13.6034 8.90456 13.1659 9.15527 12.748L6.68164 9.51562L9.51172 6.68555L12.7441 9.1582C12.7707 9.14304 12.8016 9.12845 12.8281 9.11328C12.8319 9.10948 12.8398 9.10547 12.8398 9.10547C13.0373 8.99155 13.2422 8.88085 13.4473 8.77832C13.4586 8.77078 13.4741 8.76734 13.4893 8.75977C13.683 8.66481 13.8806 8.5777 14.0781 8.49414C14.5226 8.30802 14.9822 8.15573 15.457 8.03418L15.9961 4H19.9961ZM18.126 12.4092C15.1074 12.4092 12.6602 14.8564 12.6602 17.875C12.6602 20.8935 15.1074 23.3408 18.126 23.3408C21.1444 23.3406 23.5917 20.8934 23.5918 17.875C23.5918 14.8565 21.1444 12.4094 18.126 12.4092Z" fill="#808794"/>
</svg>
