<svg width="18" height="18" viewBox="0 0 18 18" fill="none" xmlns="http://www.w3.org/2000/svg">
<circle cx="9" cy="9" r="8" stroke="#14171B" stroke-width="2"/>
<path d="M9.00016 7C9.5 5.5 7.3145 4.20039 10.1955 0.900391C18.7227 2.82039 17.5897 10.1004 15.9573 13.5004C15.9573 11.9004 16.4757 10.0204 15.0929 9.30039C13.3644 8.40039 12.5001 9.94325 11.9239 10.2004C9.90735 11.1004 7.95872 10.1253 9.00016 7Z" fill="#14171B" stroke="#14171B"/>
<path d="M5.04358 10.671C3.40068 11.6996 1.62086 9.38532 0.936311 8.09961C0.466908 14.271 4.65242 16.671 6.80384 17.0996C5.92371 16.7782 5.92371 14.8496 6.80384 13.2425C7.68397 11.6353 7.09722 9.38532 5.04358 10.671Z" fill="#14171B" stroke="#14171B"/>
</svg>
